<svg xmlns="http://www.w3.org/2000/svg" viewBox="0 0 512 512"><defs/><path d="M305 233h-76c-4 0-8 3-9 7l-14 48v-2c-1-4-5-7-10-7h-33a10 10 0 000 20h25l8 32c1 4 5 7 10 7 4 0 8-3 9-7l22-78h68a10 10 0 100-20z"/><path d="M287 300l11-11a10 10 0 00-15-15l-11 11-11-11a10 10 0 00-14 15l11 11-11 11a10 10 0 0014 14l11-11 11 11a10 10 0 0015 0c3-4 3-11 0-14l-11-11zM297 178l7-7a10 10 0 00-14-14l-7 7-7-7a10 10 0 00-14 14l7 7-7 7a10 10 0 0014 15l7-7 7 7a10 10 0 0014 0c4-4 4-11 0-14l-7-8z"/><path d="M279 121c-8-19-34-21-46-4-4 5-6 12-8 19h-5c-13 0-13 20 0 20h5v15a39 39 0 01-3 15 54 54 0 01-2 3l-1 1-3 2h-3l-1-1-1-1h-1v-1c-2-4-7-7-12-6-5 2-9 8-7 13 8 19 34 21 46 4 8-11 9-28 8-42v-2h6c13 0 13-20 0-20h-5a45 45 0 013-7v-1l1-1 3-2h4l1 1 1 1 1 1c2 4 6 7 12 6 4-2 9-8 7-13zM164 172c-6 0-10 4-10 10v5a5 5 0 01-10 0v-53h15a10 10 0 000-21H71a10 10 0 000 21h15v10c0 19-7 37-21 51a10 10 0 0014 14c18-17 27-41 27-65v-10h18v53a25 25 0 0050 0v-5c0-6-5-10-10-10zM441 202c6 0 10-5 10-10v-14c0-5-4-10-10-10h-78a10 10 0 00-7 18l32 32-32 32a10 10 0 007 17h78c6 0 10-5 10-10v-13a10 10 0 00-20 0v3h-44l22-22c4-4 4-10 0-14l-22-22h44v3c0 5 5 10 10 10z"/><path d="M502 20H10C4 20 0 24 0 30v339c0 6 4 11 10 11h227l-67 97a10 10 0 1017 11l69-101 69 101a10 10 0 1017-11l-67-97h227c6 0 10-5 10-11V30c0-6-4-10-10-10zm-10 339H20V84h472v275zm0-295H20V40h472v24z"/><path d="M409 308h-60a10 10 0 000 20h60a10 10 0 000-20zM441 308c-12 0-13 20 0 20s13-20 0-20z"/></svg>